<svg width="904" height="123" viewBox="0 0 904 123" fill="none" xmlns="http://www.w3.org/2000/svg">
<path d="M100.048 55.806C98.1635 67.6655 92.7469 77.5661 83.7764 85.5292C74.8058 93.4922 64.1011 96.8989 51.6408 95.7917C51.1484 101.924 50.5704 107.119 49.9067 111.335C49.243 115.55 48.4937 118.148 47.7015 119.106C46.5668 121.193 41.0646 122.449 31.1948 122.875C21.3037 123.301 14.3242 122.64 10.2564 120.873C8.43663 120.064 6.80951 114.72 5.37508 104.819C3.94065 94.9188 2.80595 83.762 1.90675 71.3702C1.00756 58.9785 0.429502 47.0339 0.172589 35.579C-0.105734 24.1241 -0.0415053 16.4378 0.322455 12.5414C0.707824 8.90056 3.79078 6.13265 9.63555 4.2164C15.4803 2.30015 22.2029 1.08653 29.8889 0.596821C37.5748 0.107113 45.3036 0.298738 53.0967 1.12911C60.8897 1.95949 66.9486 3.27957 71.2947 5.08936C94.2242 14.6919 103.816 31.5975 100.048 55.806ZM65.4071 46.1822C64.1654 40.4122 60.2474 37.1759 53.6533 36.4945C52.4116 36.4519 51.4267 36.4732 50.6774 36.5797C45.5177 37.4952 43.1841 41.1361 43.6765 47.5449C44.1689 53.9537 45.8817 58.1268 48.8362 60.0431C50.1208 60.9586 52.0904 61.1715 54.7238 60.6818C58.6417 60.0857 61.5748 58.4249 63.5445 55.6783C65.5141 52.9317 66.135 49.7592 65.4285 46.1822H65.4071Z" fill="#30313D"/>
<path d="M190.117 7.00562C190.16 5.55779 192.343 4.42933 196.647 3.59896C200.95 2.76858 205.703 2.34275 210.948 2.32146C216.193 2.30017 221.096 2.70471 225.699 3.55637C230.302 4.40804 233 5.792 233.792 7.72954C234.927 10.5613 235.719 15.4797 236.168 22.4633C236.618 29.4683 236.704 37.0694 236.404 45.288C236.104 53.5066 235.376 61.5761 234.22 69.4753C233.064 77.3745 231.437 83.6342 229.339 88.2119C224.822 98.0487 218.227 106.054 209.557 112.25C200.886 118.446 190.952 121.98 179.797 122.832C165.731 123.79 152.629 120.362 140.49 112.548C128.351 104.734 119.958 94.3226 115.269 81.3347C113.707 77.119 112.593 71.0509 111.93 63.1517C111.266 55.2525 110.945 47.2468 111.009 39.1134C111.052 31.0013 111.544 23.6131 112.465 16.9701C113.385 10.3271 114.713 6.11137 116.49 4.34416C117.988 2.89633 121.136 1.93821 125.91 1.46979C130.684 0.980086 135.651 0.873628 140.768 1.15042C145.906 1.42721 150.467 2.02338 154.47 2.96021C158.474 3.89704 160.465 5.08937 160.465 6.51591C160.358 10.6891 160.015 16.523 159.416 24.0176C158.816 31.5123 158.688 39.007 158.966 46.459C159.266 53.9111 160.379 60.4689 162.349 66.1751C164.318 71.8599 167.808 74.9685 172.861 75.5008C178.342 76.1396 182.281 73.6484 184.657 68.0062C187.055 62.3639 188.597 55.6783 189.325 47.9069C190.053 40.1354 190.288 32.3214 190.053 24.4861C189.817 16.6294 189.817 10.8168 190.095 7.02691L190.117 7.00562Z" fill="#30313D"/>
<path d="M297.014 47.5449V55.4015C303.137 55.508 308.768 55.7635 313.927 56.168C319.087 56.5726 322.62 56.9984 324.568 57.4881C326.388 58.0204 327.565 60.1709 328.079 63.9395C328.593 67.7081 328.636 71.7961 328.25 76.2035C327.865 80.6108 327.073 84.6776 325.96 88.3823C324.825 92.087 323.562 94.1097 322.17 94.4291C318.959 95.2382 315.019 95.7918 310.374 96.1112C305.728 96.4305 300.932 96.5583 295.986 96.5157C295.13 109.717 293.867 117.339 292.197 119.426C291.019 121.512 285.667 122.662 276.161 122.917C266.655 123.152 259.826 122.342 255.694 120.469C254.345 119.873 252.825 114.784 251.134 105.203C249.442 95.6215 247.922 84.635 246.552 72.2858C245.182 59.9154 244.197 47.694 243.576 35.6003C242.955 23.5067 242.998 14.6494 243.705 9.04965C244.133 5.94107 248.629 3.74803 257.15 2.44924C265.692 1.15045 275.176 0.405246 285.581 0.213622C296.008 0.021997 305.835 0.19233 315.062 0.703329C324.29 1.21433 329.856 1.70404 331.74 2.19374C334.159 2.83249 335.701 5.51524 336.365 10.242C337.028 14.9687 337.114 20.0574 336.6 25.5081C336.086 30.9587 335.123 35.9197 333.71 40.3696C332.275 44.8196 330.712 47.1404 329 47.2894C324.975 47.7153 320.136 47.9282 314.506 47.9282C308.875 47.9282 303.03 47.8217 297.014 47.6088V47.5449Z" fill="#30313D"/>
<path d="M395.926 47.5449V55.4015C402.049 55.508 407.68 55.7635 412.839 56.168C417.999 56.5726 421.531 56.9984 423.48 57.4881C425.299 58.0204 426.477 60.1709 426.991 63.9395C427.505 67.7081 427.547 71.7961 427.162 76.2035C426.777 80.6108 425.985 84.6776 424.871 88.3823C423.737 92.087 422.473 94.1097 421.082 94.4291C417.87 95.2382 413.931 95.7918 409.285 96.1112C404.639 96.4305 399.844 96.5583 394.898 96.5157C394.042 109.717 392.779 117.339 391.109 119.426C389.931 121.512 384.579 122.662 375.073 122.917C365.567 123.152 358.738 122.342 354.606 120.469C353.257 119.873 351.737 114.784 350.045 105.203C348.354 95.6215 346.834 84.635 345.464 72.2858C344.094 59.9154 343.109 47.694 342.488 35.6003C341.867 23.5067 341.91 14.6494 342.616 9.04965C343.044 5.94107 347.54 3.74803 356.061 2.44924C364.604 1.15045 374.088 0.405246 384.493 0.213622C394.919 0.021997 404.746 0.19233 413.974 0.703329C423.201 1.21433 428.768 1.70404 430.652 2.19374C433.071 2.83249 434.613 5.51524 435.276 10.242C435.94 14.9687 436.026 20.0574 435.512 25.5081C434.998 30.9587 434.035 35.9197 432.621 40.3696C431.187 44.8196 429.624 47.1404 427.911 47.2894C423.886 47.7153 419.048 47.9282 413.417 47.9282C407.787 47.9282 401.942 47.8217 395.926 47.6088V47.5449Z" fill="#30313D"/>
<path d="M568.4 32.0872C568.015 34.5357 564.439 39.9225 557.653 48.2263C550.866 56.53 542.709 65.2596 533.203 74.3724C532.668 85.5931 531.683 95.664 530.27 104.564C528.835 113.485 527.551 118.723 526.352 120.277C525.71 121.022 523.526 121.619 519.779 122.044C516.033 122.47 511.965 122.747 507.533 122.853C503.101 122.96 498.948 122.96 495.051 122.853C491.155 122.747 488.8 122.449 488.008 121.981C486.231 121.022 484.389 116.083 482.484 107.204C480.579 98.3042 479.123 88.2758 478.095 77.119C468.161 67.8359 459.576 58.9147 452.361 50.3554C445.146 41.8175 441.357 36.2604 441.035 33.6841C440.65 32.1937 441.571 29.6813 443.776 26.1468C445.981 22.6124 448.636 19.0567 451.762 15.4584C454.866 11.8602 458.013 8.66641 461.139 5.8772C464.286 3.10929 466.555 1.66146 467.947 1.555C471.051 1.38467 476.018 4.04612 482.805 9.51807C489.592 14.99 496.871 21.4201 504.6 28.787C512.393 21.4201 519.672 14.9474 526.459 9.41161C533.246 3.8545 538.256 1.19304 541.488 1.40596C542.837 1.51242 545.064 2.89637 548.211 5.53654C551.358 8.1767 554.484 11.2214 557.631 14.6281C560.778 18.056 563.455 21.4414 565.681 24.8055C567.908 28.1695 568.807 30.5968 568.379 32.0872H568.4Z" fill="#30313D"/>
<path d="M675.533 55.8062C673.649 67.6657 668.232 77.5663 659.262 85.5294C650.291 93.4925 639.586 96.8991 627.126 95.792C626.634 101.924 626.056 107.119 625.392 111.335C624.728 115.551 623.979 118.148 623.165 119.106C622.031 121.193 616.528 122.449 606.659 122.875C596.789 123.301 589.788 122.641 585.72 120.874C583.9 120.064 582.273 114.72 580.839 104.82C579.404 94.919 578.27 83.7622 577.371 71.3704C576.471 58.9787 575.915 47.0554 575.636 35.6005C575.358 24.1456 575.422 16.4593 575.808 12.5629C576.172 8.92206 579.276 6.15415 585.121 4.2379C590.944 2.32165 597.71 1.10803 605.374 0.639614C613.06 0.149906 620.789 0.341531 628.582 1.1719C636.375 2.00228 642.434 3.32236 646.78 5.13215C669.709 14.7347 679.301 31.6402 675.533 55.8488V55.8062ZM640.892 46.1824C639.651 40.4124 635.733 37.1761 629.139 36.4947C627.897 36.4521 626.912 36.4734 626.163 36.5799C621.003 37.4954 618.669 41.1363 619.162 47.5451C619.654 53.9539 621.367 58.127 624.321 60.0433C625.606 60.9588 627.576 61.1717 630.209 60.682C634.127 60.0859 637.06 58.4251 639.03 55.6785C640.999 52.9319 641.62 49.7594 640.914 46.1824H640.892Z" fill="#30313D"/>
<path d="M688.186 120.298C687.158 119.234 686.623 117.914 686.58 116.381C686.473 111.207 687.394 103.414 689.32 92.9813C691.247 82.5484 693.667 71.7323 696.578 60.4903C699.469 49.2483 702.551 38.7089 705.806 28.8935C709.06 19.078 711.886 12.1583 714.305 8.13414C715.269 6.57985 718.095 5.1746 722.805 3.91839C727.493 2.66219 732.696 1.78923 738.391 1.32081C744.086 0.831105 749.567 0.852396 754.833 1.3634C760.1 1.8744 763.782 3.08802 765.859 5.00427C768.856 7.87864 772.432 14.2235 776.542 23.9964C780.653 33.7693 784.657 44.4151 788.574 55.9126C792.492 67.4313 796.004 78.4604 799.129 89.0424C802.255 99.6243 804.31 107.098 805.338 111.484C806.045 114.677 805.83 116.913 804.696 118.169C803.561 119.426 801.613 120.298 798.808 120.767C794.077 121.576 788.211 122.172 781.21 122.577C774.209 122.981 769.82 123.066 768.043 122.853C767.336 122.747 766.694 122.513 766.116 122.13C764.189 120.959 762.305 117.573 760.507 111.995C758.708 106.416 756.953 102.584 755.24 100.497C754.212 99.2623 752.885 98.5384 751.215 98.3255L738.005 98.2403C733.873 98.3468 731.176 99.7095 729.956 102.328C728.35 105.692 726.509 109.44 724.475 113.549C722.441 117.658 720.921 120.192 719.957 121.15C719.465 121.746 718.758 122.13 717.774 122.342C715.568 122.832 710.366 122.939 702.188 122.704C693.988 122.47 689.342 121.64 688.207 120.256L688.186 120.298ZM740.382 49.6315C738.605 51.5052 736.849 54.6351 735.115 59.0424C733.36 63.4498 732.739 66.3455 733.231 67.7294C734.045 70.0715 737.513 71.1361 743.658 70.9019C749.802 70.6677 753.142 69.1773 753.677 66.4519C753.998 64.7912 752.393 61.0226 748.839 55.1248C745.285 49.227 742.48 47.3959 740.382 49.6315Z" fill="#30313D"/>
<path d="M859.911 4.85529C860.189 7.3677 860.382 12.0306 860.51 18.8652C860.638 25.6998 860.767 32.8112 860.874 40.1781C860.981 47.545 861.109 54.2093 861.238 60.171C861.366 66.1326 861.581 69.4754 861.837 70.2206C862.223 71.4555 864 72.1369 867.19 72.2646C870.38 72.3924 873.955 72.3498 877.894 72.1369C881.834 71.924 885.645 71.6898 889.284 71.4555C892.945 71.2213 895.429 71.3065 896.777 71.7323C898.704 72.3711 900.289 75.1603 901.488 80.0999C902.687 85.0396 903.479 90.3838 903.821 96.1325C904.164 101.881 904.014 107.162 903.372 111.995C902.729 116.828 901.488 119.468 899.668 119.894C896.927 120.597 891.468 121.235 883.268 121.853C875.068 122.47 866.419 122.832 857.299 122.939C848.178 123.045 839.7 122.768 831.928 122.13C824.135 121.491 819.34 120.213 817.498 118.276C815.657 116.338 814.266 110.121 813.281 99.6031C812.296 89.085 811.611 77.5237 811.268 64.919C810.926 52.3144 810.776 40.3272 810.862 28.9574C810.947 17.5877 811.204 10.0505 811.632 6.367C811.846 4.17396 814.458 2.57709 819.447 1.55509C824.435 0.533089 829.937 0.0220897 835.825 0.000798104C841.734 -0.0204935 847.172 0.384048 852.139 1.23571C857.106 2.08738 859.696 3.301 859.911 4.834V4.85529Z" fill="#30313D"/>
</svg>
